<svg width="194" height="60" viewBox="0 0 194 60" fill="none" xmlns="http://www.w3.org/2000/svg">
<path fill-rule="evenodd" clip-rule="evenodd" d="M24.4062 42.904L47.7676 28.379C57.5189 22.3157 63.4561 11.5973 63.4561 0.0553951V0L40.1416 14.4962C30.3607 20.5774 24.4062 31.3275 24.4062 42.904Z" fill="#FF8D85"/>
<path fill-rule="evenodd" clip-rule="evenodd" d="M24.4061 41.411V59.4056L15.3085 53.8111C5.79653 47.9617 0 37.5833 0 26.4025L24.4061 41.411Z" fill="#FFD270"/>
<path fill-rule="evenodd" clip-rule="evenodd" d="M32.5421 10.7258C32.5421 14.8271 29.264 18.1517 25.2204 18.1517C21.1765 18.1517 17.8984 14.8271 17.8984 10.7258C17.8984 6.62492 21.1765 3.30031 25.2204 3.30031C29.264 3.30031 32.5421 6.62492 32.5421 10.7258Z" fill="#FFC470"/>
<path fill-rule="evenodd" clip-rule="evenodd" d="M91.3795 16.323H84.2711V20.4139H90.7112V22.5404H84.2711V28.3527H81.8813V14.1763H91.3997L91.3795 16.323ZM102.429 25.1529H95.2805L93.9236 28.3527H91.4326L97.6905 14.1763H100.141L106.338 28.3527H103.786L102.429 25.1529ZM101.518 23.0264L98.8448 16.7281L96.1716 23.0264H101.518ZM117.53 28.3527L114.937 24.0593C114.735 24.0795 114.512 24.0795 114.289 24.0795H110.928V28.3527H108.538V14.1763H114.289C117.915 14.1763 120 15.9382 120 19.0165C120 21.2847 118.947 22.8847 117.064 23.6137L120.243 28.3527H117.53ZM110.928 21.9328H114.289C116.477 21.9328 117.732 21.0012 117.732 19.0773C117.732 17.2141 116.477 16.323 114.289 16.323H110.928V21.9328ZM138.483 28.3527H136.275L136.255 17.7609L131.779 26.8743H130.22L125.744 17.7609V28.3527H123.496V14.1763H126.332L131.01 23.5935L135.668 14.1763H138.483V28.3527ZM93.0469 36.5749H88.5509V48.6046H86.1612V36.5749H81.6855V34.4282H93.0469V36.5749ZM100.897 34.3675C105.13 34.3675 108.41 37.466 108.41 41.5164C108.41 45.5668 105.13 48.7058 100.897 48.7058C96.6644 48.7058 93.3836 45.5668 93.3836 41.5164C93.3836 37.4458 96.6644 34.3675 100.897 34.3675ZM100.917 36.5142C98.1225 36.5142 95.8138 38.7014 95.8138 41.5164C95.8138 44.3314 98.1427 46.5591 100.917 46.5591C103.692 46.5591 105.96 44.3314 105.96 41.5164C105.96 38.7014 103.692 36.5142 100.917 36.5142ZM120.412 41.6379H122.498V46.8629C121.06 47.9565 118.934 48.7058 116.99 48.7058C112.798 48.7058 109.537 45.5668 109.537 41.5164C109.537 37.466 112.838 34.3675 117.131 34.3675C119.157 34.3675 121.182 35.1371 122.579 36.3522L121.222 38.1141C120.129 37.1015 118.61 36.4939 117.131 36.4939C114.235 36.4939 111.967 38.7014 111.967 41.5164C111.967 44.3517 114.256 46.5591 117.152 46.5591C118.205 46.5591 119.4 46.1946 120.412 45.587V41.6379ZM136.323 36.5749H128.586V40.4025H135.513V42.5493H128.586V46.4579H136.566V48.6046H126.197V34.4282H136.323V36.5749ZM149.479 36.5749H144.983V48.6046H142.593V36.5749H138.117V34.4282H149.479V36.5749ZM164.134 48.6046H161.744V42.7315H154.23V48.6046H151.841V34.4282H154.23V40.5848H161.744V34.4282H164.134V48.6046ZM178.302 36.5749H170.566V40.4025H177.492V42.5493H170.566V46.4579H178.545V48.6046H168.176V34.4282H178.302V36.5749ZM190.77 48.6046L188.178 44.3112C187.975 44.3314 187.752 44.3314 187.53 44.3314H184.168V48.6046H181.778V34.4282H187.53C191.155 34.4282 193.241 36.1902 193.241 39.2684C193.241 41.5367 192.188 43.1366 190.304 43.8656L193.484 48.6046H190.77ZM184.168 42.1847H187.53C189.717 42.1847 190.972 41.2531 190.972 39.3292C190.972 37.466 189.717 36.5749 187.53 36.5749H184.168V42.1847Z" fill="url(#paint0_radial)"/>
<defs>
<radialGradient id="paint0_radial" cx="0" cy="0" r="1" gradientUnits="userSpaceOnUse" gradientTransform="translate(81.6855 14.1763) scale(111.798 14.2015)">
<stop stop-color="#FF8D85"/>
<stop offset="1" stop-color="#FFB070"/>
</radialGradient>
</defs>
</svg>
