<svg width="101" height="92" viewBox="0 0 101 92" fill="none" xmlns="http://www.w3.org/2000/svg">
<path opacity="0.25" fill-rule="evenodd" clip-rule="evenodd" d="M54.071 0.0761719C49.8322 0.0761719 45.9592 0.643864 42.5604 1.76247C28.5685 6.35994 10.3253 15.8863 2.83626 35.1445C1.06012 39.6986 0.11401 44.6121 0.00916419 49.7451C-0.420205 72.9142 14.242 91.0762 43.2219 91.0762C56.0955 91.0762 68.1041 87.3093 76.181 80.7402C85.4636 73.1925 92.16 65.4685 96.2391 57.6229C100.319 49.7772 101.785 41.81 100.605 33.7742C97.5072 12.6773 74.511 0.0761719 54.071 0.0761719Z" fill="#FEC762"/>
<path d="M50 85.0762C72.0914 85.0762 90 67.1676 90 45.0762C90 22.9848 72.0914 5.07617 50 5.07617C27.9086 5.07617 10 22.9848 10 45.0762C10 67.1676 27.9086 85.0762 50 85.0762Z" fill="#FEC762"/>
<path fill-rule="evenodd" clip-rule="evenodd" d="M41.0466 53.9852H44.1355C44.4081 53.986 44.6359 54.1928 44.6631 54.464L46.0296 68.1228C46.0842 68.6661 46.5429 69.0789 47.0889 69.0762H53.127C53.6731 69.0789 54.1317 68.6661 54.1863 68.1228L55.5507 54.464C55.5779 54.1928 55.8057 53.986 56.0782 53.9852H59.1693C59.4508 53.9851 59.7206 53.8731 59.9193 53.6737C60.1173 53.4752 60.2286 53.2063 60.2286 52.9259V46.8856C60.2264 43.1923 58.2116 39.7936 54.9723 38.0192C54.8073 37.928 54.7026 37.7564 54.6969 37.5679C54.6919 37.3793 54.7881 37.2024 54.949 37.104C59.0251 34.6165 60.313 29.2958 57.8256 25.2197C55.3382 21.1436 50.0174 19.8557 45.9413 22.3431C41.8652 24.8305 40.5773 30.1513 43.0648 34.2274C43.7276 35.3136 44.6221 36.2401 45.6843 36.9408C45.9282 37.1023 45.9951 37.4309 45.8337 37.6748C45.7825 37.7521 45.712 37.8146 45.6292 37.8561C42.1887 39.551 40.0071 43.0504 40 46.8857V52.9256C40 53.2061 40.1112 53.475 40.3092 53.6736C40.5048 53.8699 40.7695 53.9818 41.0466 53.9852ZM51.6906 45.1717C51.6906 46.0492 50.9792 46.7607 50.1016 46.7607C49.224 46.7607 48.5126 46.0492 48.5126 45.1717V41.587C48.5126 40.7094 49.224 39.998 50.1016 39.998C50.9792 39.998 51.6906 40.7094 51.6906 41.587V45.1717ZM46.5402 28.1655C46.3876 28.2222 46.2702 28.3467 46.2224 28.5023L46.2224 28.5024C46.0911 28.9119 46.024 29.3392 46.0232 29.7693C46.0749 32.1227 47.9704 34.0183 50.3239 34.0699C52.7524 34.1232 54.7644 32.1978 54.8177 29.7693C54.8178 29.713 54.792 29.6598 54.7477 29.6252C54.7047 29.5895 54.6483 29.5741 54.5931 29.5828C51.9798 30.0742 49.277 29.5846 47.002 28.2078C46.8625 28.1244 46.6926 28.1088 46.5402 28.1655Z" fill="white"/>
</svg>
