<svg width="102" height="94" viewBox="0 0 102 94" fill="none" xmlns="http://www.w3.org/2000/svg">
<path opacity="0.25" fill-rule="evenodd" clip-rule="evenodd" d="M1.2131 46.3221C-1.30168 58.0178 0.125115 68.7307 5.1986 76.4817C12.3941 87.493 22.8548 93.0762 36.287 93.0762C53.5755 93.0762 71.2668 83.803 81.1778 75.8573C92.8193 66.5254 104.31 50.7114 101.598 34.3291C99.4376 21.1762 88.2077 10.4545 69.1385 3.31541C63.3836 1.16757 57.6049 0.0761719 51.9479 0.0761719C25.4775 0.0761719 6.04187 23.9034 1.2131 46.3221Z" fill="#FEC762"/>
<path d="M49 86.0762C71.0914 86.0762 89 68.1676 89 46.0762C89 23.9848 71.0914 6.07617 49 6.07617C26.9086 6.07617 9 23.9848 9 46.0762C9 68.1676 26.9086 86.0762 49 86.0762Z" fill="#FEC762"/>
<path fill-rule="evenodd" clip-rule="evenodd" d="M64 40.9443C63.8976 45.4442 60.1666 49.0091 55.6667 48.9067L55.6667 48.9067C55.5431 48.9095 55.4194 48.9095 55.2958 48.9067C50.7958 48.8043 47.2309 45.0733 47.3333 40.5734C47.3333 37.0284 51.7083 30.445 54.3167 26.8367C54.3951 26.7392 54.4838 26.6504 54.5814 26.572C55.3274 25.9722 56.4185 26.0907 57.0183 26.8367C59.625 30.445 64 37.0284 64 40.5734C64.0028 40.697 64.0028 40.8206 64 40.9443ZM30.6667 62.24C29.7462 62.24 29 61.4938 29 60.5734V48.9067C29 47.9862 29.7462 47.24 30.6667 47.24H34.0017C34.9221 47.24 35.6683 47.9862 35.6683 48.9067V60.5734C35.6683 61.4938 34.9221 62.24 34.0017 62.24H30.6667ZM68.7567 54.255C67.3914 52.4861 65.0784 51.7396 62.9367 52.3767H62.9133L59.58 53.4434C59.23 53.555 58.9944 53.8827 59 54.25C59.0368 56.3208 57.388 58.0293 55.3172 58.0661C55.2959 58.0665 55.2746 58.0667 55.2533 58.0667H46.5C46.0397 58.0667 45.6666 57.6936 45.6666 57.2334C45.6667 56.7731 46.0397 56.4 46.5 56.4H55.25C56.4006 56.4 57.3333 55.4673 57.3333 54.3167C57.3333 53.1661 56.4006 52.2334 55.25 52.2334L49.1083 52.2467C48.7729 52.0606 48.4535 51.8471 48.1533 51.6084C46.2845 50.0145 43.9509 49.0669 41.5 48.9067H38.1667C37.7064 48.9067 37.3333 49.2798 37.3333 49.74V59.5734C37.3329 59.9306 37.5601 60.2484 37.8983 60.3634C39.0406 60.7506 40.0743 61.1095 41.013 61.4355L41.0139 61.4358L41.0933 61.4634C45.465 62.9817 47.905 63.8117 50.1233 63.8117C52.8283 63.8117 55.2033 62.575 60.355 59.8367C62.49 58.7 65.1467 57.2867 68.5383 55.5917C68.9497 55.3854 69.1161 54.8847 68.9098 54.4733C68.87 54.3938 68.8177 54.3213 68.755 54.2584L68.7567 54.255Z" fill="white"/>
</svg>
