<svg width="96" height="101" viewBox="0 0 96 101" fill="none" xmlns="http://www.w3.org/2000/svg">
<path opacity="0.2" fill-rule="evenodd" clip-rule="evenodd" d="M37.9525 3C26.33 3 16.73 7.98116 9.44708 17.7936C2.54899 27.069 -0.236522 39.1598 0.0156209 51.1937C0.267763 63.2275 3.55756 75.2043 8.81407 84.2529C14.7368 94.4712 26.054 101 35.3036 101C47.7873 101 65.3232 90.1889 76.655 80.7717C87.1057 72.0705 103.077 54.8738 92.5546 37.4013C87.5303 29.0636 79.3808 20.4619 69.7357 13.9464C60.0919 7.43079 48.9525 3 37.9525 3Z" fill="#FF8D85"/>
<path d="M45 91C67.0914 91 85 73.0914 85 51C85 28.9086 67.0914 11 45 11C22.9086 11 5 28.9086 5 51C5 73.0914 22.9086 91 45 91Z" fill="#FF8D85"/>
<path d="M59.36 35.5012C59.5232 35.3389 59.7868 35.3389 59.95 35.5012C60.4468 35.9805 61.2381 35.9664 61.7175 35.4696C62.1851 34.985 62.1847 34.217 61.7167 33.7328L59.36 31.3812V31.3812C58.8802 30.8848 58.0888 30.8715 57.5925 31.3513C57.0961 31.8311 57.0828 32.6225 57.5626 33.1188C57.5727 33.1292 57.5829 33.1395 57.5933 33.1495C57.7554 33.3121 57.7554 33.5752 57.5933 33.7378L55.75 35.5828C55.6536 35.6795 55.5161 35.723 55.3817 35.6995C54.5773 35.5556 53.7533 35.8138 53.175 36.3912L50.325 39.2395C50.2108 39.3529 50.0419 39.3911 49.89 39.3378C49.6225 39.2425 49.3407 39.1935 49.0567 39.1928C48.3933 39.1908 47.7569 39.455 47.29 39.9262L40.21 47.0012H40.21C39.234 47.9774 39.234 49.5599 40.21 50.5362L42.5667 52.8945C43.5429 53.8705 45.1254 53.8705 46.1017 52.8945L47.1633 51.8328C47.3258 51.6699 47.5896 51.6694 47.7526 51.8319C47.7797 51.8589 47.8029 51.8895 47.8217 51.9228C49.4583 54.8578 48.9561 58.5215 46.59 60.9078C43.6612 63.8357 38.9137 63.8357 35.985 60.9078C35.9261 60.8496 35.9255 60.7546 35.9838 60.6957C36.0123 60.6669 36.0512 60.6508 36.0917 60.6512H36.7583C37.4487 60.6512 38.0083 60.0915 38.0083 59.4012C38.0083 58.7108 37.4487 58.1512 36.7583 58.1512H28.25C27.5596 58.1512 27 58.7108 27 59.4012C27 60.0915 27.5596 60.6512 28.25 60.6512H29.5833C29.7454 60.6508 29.893 60.7444 29.9617 60.8912H29.9617C31.0669 63.2513 32.8797 65.2086 35.1483 66.4912C35.3481 66.6054 35.4174 66.86 35.3031 67.0597C35.2292 67.1889 35.0921 67.2688 34.9433 67.2695H32.5C31.5795 67.2695 30.8333 68.0157 30.8333 68.9362C30.8333 69.8566 31.5795 70.6028 32.5 70.6028H50.8333C51.7538 70.6028 52.5 69.8566 52.5 68.9362C52.5 68.0157 51.7538 67.2695 50.8333 67.2695H47.6367C47.4065 67.2685 47.2208 67.0811 47.2219 66.8509C47.2226 66.7022 47.3025 66.565 47.4317 66.4912C53.4455 63.1011 55.5726 55.4777 52.1825 49.4638C51.9274 49.0113 51.6444 48.5751 51.335 48.1578C51.2117 47.9919 51.2287 47.7606 51.375 47.6145L53.1733 45.8178C53.8557 45.1351 54.0841 44.1204 53.76 43.2112C53.7066 43.0598 53.7448 42.8913 53.8583 42.7778L56.7083 39.9262C57.1788 39.4581 57.4428 38.8215 57.4417 38.1578V38.1578C57.4418 38.0097 57.4284 37.8618 57.4017 37.7161C57.3781 37.5822 57.4217 37.4452 57.5183 37.3495L59.36 35.5012Z" fill="white"/>
</svg>
