<svg width="137" height="135" viewBox="0 0 137 135" fill="none" xmlns="http://www.w3.org/2000/svg">
<path opacity="0.25" fill-rule="evenodd" clip-rule="evenodd" d="M100.483 34.9404C97.2362 32.2157 93.9044 30.1611 90.5817 28.8333C76.9081 23.3613 56.8096 18.9324 38.6937 28.8712C34.4058 31.2182 30.5227 34.374 27.143 38.2387C11.9212 55.7113 11.4788 79.0488 33.6788 97.6768C43.5405 105.952 55.1609 110.785 65.5707 110.945C77.5332 111.129 87.6278 109.517 95.7956 106.129C103.964 102.741 110.208 97.5801 114.47 90.6661C125.658 72.5136 116.141 48.0789 100.483 34.9404Z" fill="#FEC762"/>
<path d="M68 107C90.0914 107 108 89.0914 108 67C108 44.9086 90.0914 27 68 27C45.9086 27 28 44.9086 28 67C28 89.0914 45.9086 107 68 107Z" fill="#FEC762"/>
<path fill-rule="evenodd" clip-rule="evenodd" d="M82.786 64.4026C81.8621 64.4026 81.1131 63.6536 81.1131 62.7296V57.7108H76.0942C74.2463 57.7108 72.7482 56.2127 72.7482 54.3648V49.3459H56.0186C55.0947 49.3459 54.3457 50.0949 54.3457 51.0189L54.3457 81.1322C54.3457 82.0562 55.0947 82.8052 56.0186 82.8052H67.7294C68.6533 82.8052 69.4023 83.5542 69.4023 84.4782C69.4023 85.4021 68.6533 86.1511 67.7294 86.1511H56.0186C53.2468 86.1511 50.9997 83.9041 50.9997 81.1322V51.0189C50.9997 48.2471 53.2468 46 56.0186 46H72.7482C73.6361 45.9976 74.4879 46.3506 75.1138 46.9804L83.4786 55.3452C84.1049 55.9733 84.4573 56.8237 84.459 57.7108V62.7296C84.459 63.6536 83.71 64.4026 82.786 64.4026ZM76.9273 82.586C78.4908 82.5921 79.9664 81.8636 80.9123 80.6186C80.9767 80.5289 81.0743 80.4686 81.1833 80.4513C81.2686 80.4379 81.3506 80.4212 81.4376 80.4028C81.6627 80.3511 81.8872 80.4916 81.9389 80.7167C81.946 80.7477 81.9496 80.7793 81.9495 80.811V89.1624C81.9501 89.6244 81.5761 89.9994 81.1141 90C80.9174 90.0003 80.7269 89.9312 80.576 89.8048L77.1983 86.9876C77.043 86.8591 76.8183 86.8591 76.663 86.9876L73.2836 89.8032C72.9286 90.0988 72.4012 90.0508 72.1055 89.6958C71.9804 89.5456 71.9118 89.3563 71.9118 89.1608V80.816C71.9087 80.6864 71.9662 80.5627 72.0673 80.4814C72.1676 80.4029 72.2975 80.3729 72.422 80.3995C72.504 80.4195 72.5893 80.4346 72.673 80.448C72.7819 80.4656 72.8794 80.5258 72.944 80.6153C73.8885 81.8614 75.3637 82.5913 76.9273 82.586ZM76.9307 65.2391C72.7729 65.2391 69.4023 68.6096 69.4023 72.7674C69.4023 76.9252 72.7729 80.2957 76.9307 80.2957C81.0884 80.2957 84.4589 76.9253 84.459 72.7676C84.454 68.612 81.0866 65.2443 76.9309 65.2391H76.9307ZM80.3246 71.332L77.0643 75.6627C76.7713 76.0562 76.319 76.3015 75.8276 76.3335H75.7085C75.2608 76.3331 74.8317 76.1557 74.5156 75.8405L72.8293 74.1636C72.4945 73.8418 72.4854 73.311 72.8091 72.9781C73.1328 72.6452 73.6666 72.6362 74.0014 72.958C74.0084 72.9648 74.0153 72.9717 74.0221 72.9786L75.4836 74.4319C75.5934 74.5411 75.7713 74.5411 75.8811 74.432C75.8906 74.4225 75.8994 74.4124 75.9075 74.4017L78.9789 70.3292C79.2583 69.9588 79.7868 69.8837 80.1594 70.1615C80.5319 70.4394 80.6074 70.9649 80.328 71.3353L80.3246 71.332Z" fill="white"/>
</svg>
