<svg width="101" height="91" viewBox="0 0 101 91" fill="none" xmlns="http://www.w3.org/2000/svg">
<path opacity="0.25" fill-rule="evenodd" clip-rule="evenodd" d="M54.071 0C49.8322 0 45.9592 0.567693 42.5604 1.6863C28.5685 6.28377 10.3253 15.8101 2.83626 35.0683C1.06012 39.6224 0.11401 44.5359 0.00916419 49.6689C-0.420205 72.838 14.242 91 43.2219 91C56.0955 91 68.1041 87.2331 76.181 80.6641C85.4636 73.1163 92.16 65.3923 96.2391 57.5467C100.319 49.7011 101.785 41.7338 100.605 33.698C97.5072 12.6011 74.511 0 54.071 0Z" fill="#FEC762"/>
<path d="M50 85C72.0914 85 90 67.0914 90 45C90 22.9086 72.0914 5 50 5C27.9086 5 10 22.9086 10 45C10 67.0914 27.9086 85 50 85Z" fill="#FEC762"/>
<path d="M53.916 59.4683V59.4683C53.7577 59.2773 53.5225 59.1667 53.2743 59.1667H46.7243V59.1667C46.4762 59.1667 46.241 59.2773 46.0827 59.4683L42.5827 63.6883H42.5827C42.3185 64.0652 42.4098 64.5849 42.7867 64.849C42.9271 64.9475 43.0945 65.0002 43.266 65H56.731C57.1912 65.0005 57.5648 64.6278 57.5653 64.1676C57.5655 63.9961 57.5128 63.8287 57.4143 63.6883L53.916 59.4683Z" fill="white"/>
<path fill-rule="evenodd" clip-rule="evenodd" d="M32.5 25H67.5C68.8807 25 70 26.1193 70 27.5V54.1667C70 55.5474 68.8807 56.6667 67.5 56.6667H32.5C31.1193 56.6667 30 55.5474 30 54.1667V27.5C30 26.1193 31.1193 25 32.5 25ZM65.8333 50C66.2936 50 66.6667 49.6269 66.6667 49.1667V29.1667C66.6667 28.7064 66.2936 28.3333 65.8333 28.3333H34.1667C33.7064 28.3333 33.3333 28.7064 33.3333 29.1667V49.1667C33.3333 49.6269 33.7064 50 34.1667 50H65.8333Z" fill="white"/>
<path d="M46.6997 42.4067C46.7633 42.3424 46.8218 42.2733 46.8747 42.2L51.3531 35.9767V35.9767C51.9058 35.2406 51.7572 34.1958 51.0211 33.6431C50.2851 33.0904 49.2403 33.239 48.6876 33.9751C48.674 33.9931 48.6609 34.0114 48.6481 34.03L45.2881 38.6967C45.1624 38.8731 44.9221 38.9232 44.7364 38.8117L42.2114 37.3C41.4652 36.8555 40.5027 37.0586 39.9997 37.7667L36.1397 43.205H36.1397C35.6068 43.9561 35.7836 44.997 36.5347 45.53C37.2859 46.0629 38.3268 45.8861 38.8597 45.135L41.5981 41.265C41.725 41.0881 41.9663 41.0381 42.1531 41.15L44.6647 42.65C45.3187 43.0448 46.1573 42.9445 46.6997 42.4067L46.6997 42.4067Z" fill="white"/>
<path d="M54.9993 45C54.5391 45 54.166 44.6269 54.166 44.1667V32.5C54.166 32.0398 54.5391 31.6667 54.9993 31.6667H56.666C57.1262 31.6667 57.4993 32.0398 57.4993 32.5V44.1667C57.4993 44.6269 57.1262 45 56.666 45H54.9993Z" fill="white"/>
<path d="M60.8333 45C60.3731 45 60 44.6269 60 44.1667V35.8333C60 35.3731 60.3731 35 60.8333 35H62.5C62.9602 35 63.3333 35.3731 63.3333 35.8333V44.1667C63.3333 44.6269 62.9602 45 62.5 45H60.8333Z" fill="white"/>
</svg>
