<svg width="20" height="20" viewBox="0 0 20 20" fill="none" xmlns="http://www.w3.org/2000/svg">
<path fill-rule="evenodd" clip-rule="evenodd" d="M19.9998 18.8961C19.9998 19.5057 19.5056 20 18.8961 20H13.7996V12.2549H16.3993L16.7885 9.23649H13.7996V7.30943C13.7996 6.43554 14.0423 5.84 15.2954 5.84L16.8937 5.83931V3.13962C16.6173 3.10284 15.6685 3.02065 14.5647 3.02065C12.2603 3.02065 10.6826 4.4273 10.6826 7.0105V9.23649H8.07624V12.2549H10.6826V20H1.10384C0.494026 20 0 19.5057 0 18.8961V1.10384C0 0.494104 0.494104 0 1.10384 0H18.8961C19.5057 0 19.9998 0.494104 19.9998 1.10384V18.8961Z" fill="#9AA1B8"/>
</svg>
