<svg width="757" height="749" viewBox="0 0 757 749" fill="none" xmlns="http://www.w3.org/2000/svg">
<path opacity="0.25" fill-rule="evenodd" clip-rule="evenodd" d="M399.78 97C373.927 97 350.305 100.462 329.576 107.285C244.239 135.324 132.974 193.424 87.2984 310.878C76.4657 338.653 70.6953 368.62 70.0559 399.926C67.4372 541.232 156.862 652 333.611 652C412.127 652 485.368 629.026 534.629 588.962C591.244 542.929 632.085 495.821 656.963 447.972C681.849 400.122 690.786 351.53 683.592 302.521C664.697 173.853 524.443 97 399.78 97Z" fill="#FEC762"/>
<path fill-rule="evenodd" clip-rule="evenodd" d="M656.751 229.276C636.695 159.334 590.081 110.178 518.32 83.3234C450.464 57.8556 372.721 62.007 300.563 84.3401C228.405 106.673 161.833 147.188 116.319 194.473C64.8982 247.79 45.0427 327.19 61.0039 382.853C82.5459 457.979 178.023 544.807 254.386 596.711C324.908 644.551 456.206 710.918 543.45 617.373C585.076 572.715 622.902 508.793 645.563 439.479C668.226 370.174 675.732 295.474 656.751 229.276Z" fill="url(#paint0_linear)"/>
<path opacity="0.295132" fill-rule="evenodd" clip-rule="evenodd" d="M439.301 195.09C393.712 165.484 345.868 156.717 297.233 169.067C251.205 180.706 215.551 211.689 191.928 250.229C168.306 288.769 156.716 334.868 158.829 376.755C161.162 424.022 192.202 473.412 228.484 496.974C277.452 528.774 368.347 539.396 432.057 538.604C490.845 537.823 588.663 524.349 583.123 442.519C580.468 403.463 566.093 355.614 541.585 310.526C517.082 265.44 482.449 223.111 439.301 195.09Z" fill="#FF8D85"/>
<defs>
<linearGradient id="paint0_linear" x1="670.894" y1="695.736" x2="750.349" y2="108.474" gradientUnits="userSpaceOnUse">
<stop stop-color="#FFB3AD"/>
<stop offset="1" stop-color="#FF8D85"/>
</linearGradient>
</defs>
</svg>
