<svg width="20" height="20" viewBox="0 0 20 20" fill="none" xmlns="http://www.w3.org/2000/svg">
<path fill-rule="evenodd" clip-rule="evenodd" d="M4.99525 0H15.0047C17.7635 0 20 2.23604 20 4.99525V15.0047C20 17.7635 17.764 20 15.0047 20H4.99525C2.23645 20 0 17.764 0 15.0047V4.99525C0 2.23645 2.23604 0 4.99525 0ZM2 15.0047C2 16.6592 3.34085 18 4.99525 18H15.0047C16.6592 18 18 16.6591 18 15.0047V4.99525C18 3.34078 16.6591 2 15.0047 2H4.99525C3.34078 2 2 3.34085 2 4.99525V15.0047ZM10 5C7.23858 5 5 7.23858 5 10C5 12.7614 7.23858 15 10 15C12.7614 15 15 12.7614 15 10C15 7.23858 12.7614 5 10 5ZM13 10C13 8.34315 11.6569 7 10 7C8.34315 7 7 8.34315 7 10C7 11.6569 8.34315 13 10 13C11.6569 13 13 11.6569 13 10ZM16 5C16 5.55228 15.5523 6 15 6C14.4477 6 14 5.55228 14 5C14 4.44772 14.4477 4 15 4C15.5523 4 16 4.44772 16 5Z" fill="#9AA1B8"/>
</svg>
