<svg width="113" height="35" viewBox="0 0 113 35" fill="none" xmlns="http://www.w3.org/2000/svg">
<path fill-rule="evenodd" clip-rule="evenodd" d="M10.3795 2.32303H3.27105V6.41392H9.71116V8.54037H3.27105V14.3527H0.881325V0.176331H10.3997L10.3795 2.32303ZM21.4294 11.1529H14.2805L12.9236 14.3527H10.4326L16.6905 0.176331H19.1409L25.338 14.3527H22.7863L21.4294 11.1529ZM20.5181 9.02641L17.8448 2.72807L15.1716 9.02641H20.5181ZM36.5297 14.3527L33.9375 10.0593C33.735 10.0795 33.5122 10.0795 33.2894 10.0795H29.9276V14.3527H27.5379V0.176331H33.2894C36.9145 0.176331 39.0005 1.93825 39.0005 5.01654C39.0005 7.28475 37.9474 8.88465 36.0639 9.61372L39.2435 14.3527H36.5297ZM29.9276 7.93281H33.2894C35.4766 7.93281 36.7323 7.00122 36.7323 5.07729C36.7323 3.21412 35.4766 2.32303 33.2894 2.32303H29.9276V7.93281ZM57.4829 14.3527H55.2754L55.2552 3.76092L50.7795 12.8743H49.2201L44.7444 3.76092V14.3527H42.4965V0.176331H45.3317L50.0099 9.59347L54.6679 0.176331H57.4829V14.3527ZM12.0469 22.5749H7.55095V34.6046H5.16122V22.5749H0.685547V20.4282H12.0469V22.5749ZM19.897 20.3675C24.1297 20.3675 27.4105 23.466 27.4105 27.5164C27.4105 31.5668 24.1297 34.7058 19.897 34.7058C15.6644 34.7058 12.3836 31.5668 12.3836 27.5164C12.3836 23.4458 15.6644 20.3675 19.897 20.3675ZM19.9173 22.5142C17.1225 22.5142 14.8138 24.7014 14.8138 27.5164C14.8138 30.3314 17.1427 32.5591 19.9173 32.5591C22.6918 32.5591 24.96 30.3314 24.96 27.5164C24.96 24.7014 22.6918 22.5142 19.9173 22.5142ZM39.4123 27.6379H41.4982V32.8629C40.0603 33.9565 37.9339 34.7058 35.9897 34.7058C31.7975 34.7058 28.537 31.5668 28.537 27.5164C28.537 23.466 31.838 20.3675 36.1314 20.3675C38.1566 20.3675 40.1818 21.1371 41.5792 22.3522L40.2223 24.1141C39.1287 23.1015 37.6098 22.4939 36.1314 22.4939C33.2354 22.4939 30.9672 24.7014 30.9672 27.5164C30.9672 30.3517 33.2557 32.5591 36.1517 32.5591C37.2048 32.5591 38.3997 32.1946 39.4123 31.587V27.6379ZM55.3227 22.5749H47.5864V26.4025H54.5126V28.5493H47.5864V32.4579H55.5657V34.6046H45.1967V20.4282H55.3227V22.5749ZM68.4788 22.5749H63.9829V34.6046H61.5932V22.5749H57.1175V20.4282H68.4788V22.5749ZM83.1336 34.6046H80.7439V28.7315H73.2304V34.6046H70.8407V20.4282H73.2304V26.5848H80.7439V20.4282H83.1336V34.6046ZM97.3023 22.5749H89.5661V26.4025H96.4923V28.5493H89.5661V32.4579H97.5454V34.6046H87.1764V20.4282H97.3023V22.5749ZM109.77 34.6046L107.178 30.3112C106.975 30.3314 106.752 30.3314 106.53 30.3314H103.168V34.6046H100.778V20.4282H106.53C110.155 20.4282 112.241 22.1902 112.241 25.2684C112.241 27.5367 111.188 29.1366 109.304 29.8656L112.484 34.6046H109.77ZM103.168 28.1847H106.53C108.717 28.1847 109.972 27.2531 109.972 25.3292C109.972 23.466 108.717 22.5749 106.53 22.5749H103.168V28.1847Z" fill="url(#paint0_radial)"/>
<defs>
<radialGradient id="paint0_radial" cx="0" cy="0" r="1" gradientUnits="userSpaceOnUse" gradientTransform="translate(0.685547 0.176331) scale(111.798 14.2015)">
<stop stop-color="#FF8D85"/>
<stop offset="1" stop-color="#FFB070"/>
</radialGradient>
</defs>
</svg>
