<svg width="64" height="60" viewBox="0 0 64 60" fill="none" xmlns="http://www.w3.org/2000/svg">
<path fill-rule="evenodd" clip-rule="evenodd" d="M24.4062 42.904L47.7676 28.379C57.5189 22.3157 63.4561 11.5973 63.4561 0.0553951V0L40.1416 14.4962C30.3607 20.5774 24.4062 31.3275 24.4062 42.904Z" fill="#FF8D85"/>
<path fill-rule="evenodd" clip-rule="evenodd" d="M24.4061 41.411V59.4056L15.3085 53.8111C5.79653 47.9617 0 37.5833 0 26.4025L24.4061 41.411Z" fill="#FFD270"/>
<path fill-rule="evenodd" clip-rule="evenodd" d="M32.5421 10.7258C32.5421 14.8271 29.264 18.1517 25.2204 18.1517C21.1765 18.1517 17.8984 14.8271 17.8984 10.7258C17.8984 6.62492 21.1765 3.30031 25.2204 3.30031C29.264 3.30031 32.5421 6.62492 32.5421 10.7258Z" fill="#FFC470"/>
</svg>
