<svg width="102" height="93" viewBox="0 0 102 93" fill="none" xmlns="http://www.w3.org/2000/svg">
<path opacity="0.2" fill-rule="evenodd" clip-rule="evenodd" d="M1.2131 46.2459C-1.30168 57.9416 0.125115 68.6545 5.1986 76.4055C12.3941 87.4169 22.8548 93 36.287 93C53.5755 93 71.2668 83.7268 81.1778 75.7811C92.8193 66.4493 104.31 50.6352 101.598 34.253C99.4376 21.1 88.2077 10.3783 69.1385 3.23923C63.3836 1.0914 57.6049 0 51.9479 0C25.4775 0 6.04187 23.8272 1.2131 46.2459Z" fill="#FF8D85"/>
<path d="M49 86C71.0914 86 89 68.0914 89 46C89 23.9086 71.0914 6 49 6C26.9086 6 9 23.9086 9 46C9 68.0914 26.9086 86 49 86Z" fill="#FF8D85"/>
<path fill-rule="evenodd" clip-rule="evenodd" d="M67.2562 40.39C67.2562 46.3233 61.8896 51.13 55.2712 51.13C48.6512 51.13 43.2863 46.3233 43.2812 40.39C43.2812 35.7583 47.8379 30.67 52.0579 28.67C52.0689 28.6647 52.0796 28.659 52.0901 28.6528C52.2891 28.5355 52.3553 28.279 52.2379 28.08L50.6662 25.4616C50.5787 25.3153 50.5329 25.1478 50.5336 24.9773C50.536 24.461 50.9565 24.0443 51.4729 24.0466H59.3812C59.5495 24.0471 59.7145 24.0929 59.8589 24.1793C60.302 24.4444 60.4463 25.0185 60.1812 25.4616L58.6012 28.0933C58.5954 28.1031 58.5899 28.1132 58.5849 28.1235C58.4831 28.3309 58.5688 28.5816 58.7762 28.6833C62.9062 30.6966 67.2562 35.7683 67.2562 40.39ZM51.3129 36.5516C51.3129 38.1033 52.8962 39.17 54.5729 40.2966L54.5729 40.2916C55.3323 40.7576 56.0426 41.2993 56.6929 41.9083C56.7173 41.9416 56.7302 41.982 56.7296 42.0233C56.7287 42.0512 56.7058 42.0733 56.6779 42.0733H52.5629C51.8726 42.0733 51.3129 42.6329 51.3129 43.3233C51.3129 44.0137 51.8726 44.5733 52.5629 44.5733H53.6046C53.8347 44.5733 54.0213 44.7599 54.0213 44.99V45.355C54.0213 46.0453 54.5809 46.605 55.2713 46.605C55.9616 46.605 56.5213 46.0453 56.5213 45.355V44.6766C56.5222 44.6193 56.5689 44.5733 56.6263 44.5733C56.7563 44.5838 56.887 44.5838 57.0171 44.5732C58.3474 44.4648 59.3379 43.2986 59.2296 41.9683C59.2296 40.4183 57.6462 39.3516 55.9696 38.2233C55.2117 37.7597 54.502 37.2215 53.8512 36.6166C53.826 36.5831 53.8131 36.5419 53.8146 36.5L53.8146 36.4983C53.8146 36.4707 53.837 36.4483 53.8646 36.4483H57.9796C58.6699 36.4483 59.2296 35.8887 59.2296 35.1983C59.2296 34.5079 58.6699 33.9483 57.9796 33.9483H56.9379C56.7078 33.9483 56.5212 33.7618 56.5212 33.5316V33.1666C56.5212 32.4763 55.9616 31.9166 55.2712 31.9166C54.5809 31.9166 54.0212 32.4763 54.0212 33.1666V33.8433C54.0213 33.9006 53.9752 33.9474 53.9179 33.9483C53.7462 33.9293 53.5729 33.9293 53.4012 33.9481C52.1056 34.0904 51.1706 35.256 51.3129 36.5516Z" fill="white"/>
<path d="M62.0691 54.05L56.2008 56C56.0858 56.0396 55.9931 56.1263 55.9458 56.2383C55.4121 57.438 54.2238 58.2125 52.9108 58.2167H46.2441C45.7839 58.2167 45.4108 57.8436 45.4108 57.3833C45.4108 56.9231 45.7839 56.55 46.2441 56.55H52.9108C53.8313 56.55 54.5775 55.8038 54.5775 54.8833C54.5775 53.9629 53.8313 53.2167 52.9108 53.2167H47.0775C46.5658 53.2167 44.5608 50.7167 40.4108 50.7167H36.9858L36.9858 50.7167C35.9507 50.717 34.9298 50.9584 34.0041 51.4217L28.9741 53.9317C28.8334 54.003 28.7446 54.1472 28.7441 54.305V63.295L28.7441 63.295C28.7439 63.5251 28.9302 63.7119 29.1603 63.7122C29.2389 63.7123 29.3159 63.6902 29.3825 63.6483L34.7425 60.2983C35.1709 60.0337 35.6947 59.9727 36.1725 60.1317C52.7808 65.7283 47.2191 65.7533 65.9475 56.2783C66.3697 56.0711 66.5441 55.5609 66.3369 55.1386C66.2835 55.0298 66.2076 54.9337 66.1141 54.8567V54.8567C65.0049 53.8881 63.465 53.581 62.0691 54.05L62.0691 54.05Z" fill="white"/>
</svg>
