<svg width="102" height="93" viewBox="0 0 102 93" fill="none" xmlns="http://www.w3.org/2000/svg">
<path opacity="0.2" fill-rule="evenodd" clip-rule="evenodd" d="M1.2131 46.2459C-1.30168 57.9416 0.125115 68.6545 5.1986 76.4055C12.3941 87.4169 22.8548 93 36.287 93C53.5755 93 71.2668 83.7268 81.1778 75.7811C92.8193 66.4493 104.31 50.6352 101.598 34.253C99.4376 21.1 88.2077 10.3783 69.1385 3.23923C63.3836 1.0914 57.6049 0 51.9479 0C25.4775 0 6.04187 23.8272 1.2131 46.2459Z" fill="#FF8D85"/>
<path d="M49 86C71.0914 86 89 68.0914 89 46C89 23.9086 71.0914 6 49 6C26.9086 6 9 23.9086 9 46C9 68.0914 26.9086 86 49 86Z" fill="#FF8D85"/>
<path fill-rule="evenodd" clip-rule="evenodd" d="M60.2507 29H64.834C66.6749 29 68.1673 30.4924 68.1673 32.3333V60.6667C68.1673 62.5076 66.6749 64 64.834 64H33.1673C31.3264 64 29.834 62.5076 29.834 60.6667V32.3333C29.834 30.4924 31.3264 29 33.1673 29H35.6673C36.1276 29 36.5007 29.3731 36.5007 29.8333V33.5834C36.5007 34.2737 37.0603 34.8334 37.7507 34.8334C38.441 34.8334 39.0007 34.2737 39.0007 33.5834V25.6667V25.6667C39.0007 24.7462 39.7468 24 40.6673 24C41.5878 24 42.334 24.7462 42.334 25.6667V25.6667V28.585C42.3349 28.8145 42.5212 29 42.7507 29H53.1673C53.6276 29 54.0007 29.3731 54.0007 29.8333V33.5833C54.0007 34.2737 54.5603 34.8333 55.2507 34.8333C55.941 34.8333 56.5007 34.2737 56.5007 33.5833V25.6667C56.5007 24.7462 57.2468 24 58.1673 24C59.0878 24 59.834 24.7462 59.834 25.6667V28.5833C59.834 28.8135 60.0205 29 60.2507 29ZM64.0007 60.6667C64.4609 60.6667 64.834 60.2936 64.834 59.8333V39.8333C64.834 39.3731 64.4609 39 64.0007 39H34.0007C33.5404 39 33.1673 39.3731 33.1673 39.8333V59.8333C33.1673 60.2936 33.5404 60.6667 34.0007 60.6667H64.0007Z" fill="white"/>
<path d="M49.3327 48.5751H48.666C47.7648 48.6314 46.9861 47.9522 46.9193 47.0517C46.9193 45.9151 47.771 45.5284 48.6693 45.5284L51.6693 45.5367C52.3597 45.5367 52.9193 44.9771 52.9193 44.2867C52.9193 43.5964 52.3597 43.0367 51.6693 43.0367H50.2493V42.0601C50.2493 41.3697 49.6897 40.8101 48.9993 40.8101C48.309 40.8101 47.7493 41.3697 47.7493 42.0601V43.1317H47.7493C46.9828 43.2863 46.2729 43.647 45.696 44.1751L45.696 44.1751C44.8883 44.9159 44.4246 45.959 44.416 47.0551L44.416 47.0551C44.4841 49.3367 46.3841 51.1339 48.666 51.0751H49.3327C50.1768 50.9565 50.9571 51.5447 51.0757 52.3887C51.1942 53.2328 50.6061 54.0132 49.762 54.1317C49.6196 54.1517 49.4751 54.1517 49.3327 54.1317H46.3327C45.6423 54.1317 45.0827 54.6914 45.0827 55.3817C45.0827 56.0721 45.6423 56.6317 46.3327 56.6317H47.746V57.6067C47.746 58.2971 48.3057 58.8567 48.996 58.8567C49.6864 58.8567 50.246 58.2971 50.246 57.6067V56.5267C52.1462 56.1702 53.5368 54.5313 53.5793 52.5984L53.5793 52.5984C53.5095 50.3184 51.6132 48.5218 49.3327 48.5751L49.3327 48.5751Z" fill="white"/>
</svg>
