<svg width="139" height="139" viewBox="0 0 139 139" fill="none" xmlns="http://www.w3.org/2000/svg">
<path opacity="0.25" fill-rule="evenodd" clip-rule="evenodd" d="M27.8364 41.8031C19.6181 50.0214 16.3521 60.3318 18.1408 72.4201C19.8218 83.8565 26.4016 94.3756 35.0891 102.707C43.7766 111.037 54.5717 117.18 64.687 119.862C76.1004 122.899 88.7194 119.513 95.2599 112.973C104.087 104.145 108.842 84.1009 110.196 69.4291C111.433 55.8868 110.567 32.4335 90.7714 27.519C81.323 25.176 69.4781 24.8563 58.0508 27.0692C46.6244 29.2812 35.6146 34.0249 27.8364 41.8031Z" fill="#FEC762"/>
<path d="M67 111C89.0914 111 107 93.0914 107 71C107 48.9086 89.0914 31 67 31C44.9086 31 27 48.9086 27 71C27 93.0914 44.9086 111 67 111Z" fill="#FEC762"/>
<path fill-rule="evenodd" clip-rule="evenodd" d="M48.7391 65.174H85.2609C86.2214 65.174 87 65.9526 87 66.9131V87.7826C87 88.7431 86.2214 89.5218 85.2609 89.5218H48.7391C47.7786 89.5218 47 88.7431 47 87.7826V66.9131C47 65.9526 47.7786 65.174 48.7391 65.174ZM60.913 77.3479C60.913 80.7096 63.6383 83.4348 67 83.4348C70.3617 83.4348 73.087 80.7096 73.087 77.3479C73.087 73.9861 70.3617 71.2609 67 71.2609C63.6383 71.2609 60.913 73.9861 60.913 77.3479Z" fill="white"/>
<path d="M52.2176 62.5652H81.7829C82.7434 62.5652 83.522 61.7865 83.522 60.826C83.522 59.8655 82.7434 59.0869 81.7829 59.0869H52.2176H52.2176C51.2572 59.0869 50.4785 59.8655 50.4785 60.826C50.4785 61.7865 51.2572 62.5652 52.2176 62.5652H52.2176Z" fill="white"/>
<path d="M55.6962 56.4783H78.3049C79.2654 56.4783 80.044 55.6996 80.044 54.7391C80.044 53.7786 79.2654 53 78.3049 53H55.6962H55.6962C54.7357 53 53.957 53.7786 53.957 54.7391C53.957 55.6996 54.7357 56.4783 55.6962 56.4783H55.6962Z" fill="white"/>
</svg>
