<svg width="98" height="100" viewBox="0 0 98 100" fill="none" xmlns="http://www.w3.org/2000/svg">
<path opacity="0.2" fill-rule="evenodd" clip-rule="evenodd" d="M38.7431 0C26.8786 0 17.0786 5.08282 9.64389 15.0955C2.60209 24.5602 -0.241449 36.8978 0.0159464 49.1772C0.273342 61.4566 3.63168 73.6779 8.99769 82.9111C15.0438 93.3379 26.5968 100 36.0391 100C48.7829 100 66.6841 88.9683 78.252 79.3588C88.9204 70.4801 105.224 52.9325 94.4828 35.1034C89.3539 26.5955 81.0346 17.8183 71.1885 11.1698C61.3438 4.52122 49.9724 0 38.7431 0Z" fill="#FF8D85"/>
<path d="M47 89C69.0914 89 87 71.0914 87 49C87 26.9086 69.0914 9 47 9C24.9086 9 7 26.9086 7 49C7 71.0914 24.9086 89 47 89Z" fill="#FF8D85"/>
<path fill-rule="evenodd" clip-rule="evenodd" d="M53.1602 32.1417C52.4592 30.2542 50.6587 29.0014 48.6453 29L53.1602 32.1417ZM45.6819 29C43.585 29.0009 41.7293 30.3573 41.0919 32.355L45.6819 29ZM40.6153 32.8733L41.0919 32.355C41.0174 32.5897 40.8429 32.7795 40.6153 32.8733ZM31.5919 45L40.6153 32.8733C35.4457 34.7375 31.8924 39.5128 31.5919 45ZM31.2336 46.3867L31.5919 45C31.5737 45.4826 31.4515 45.9556 31.2336 46.3867ZM30.4386 47.8309L31.2336 46.3867C31.0057 46.8348 30.7013 47.3694 30.4386 47.8309ZM30.3435 47.9981C29.1858 50.0404 27.8816 52.3412 28.0086 54.1833L30.3435 47.9981ZM28.0086 54.4117C27.9785 54.847 28.0889 55.2804 28.3236 55.6483L28.0086 54.4117ZM29.9319 56.5167L28.3236 55.6483C28.6968 56.1706 29.2905 56.4911 29.9319 56.5167ZM30.8503 56.5333L29.9319 56.5167C30.2203 56.5283 30.5386 56.5333 30.8503 56.5333ZM31.6836 57.3667L30.8503 56.5333C31.3105 56.5333 31.6836 56.9064 31.6836 57.3667ZM31.6836 60.6667C31.6836 62.9678 33.5491 64.8333 35.8503 64.8333L31.6836 60.6667ZM38.3503 64.8333C38.8105 64.8333 39.1836 65.2064 39.1836 65.6667L38.3503 64.8333ZM39.1836 68.1667C39.1836 68.6269 39.5567 69 40.0169 69L39.1836 68.1667ZM56.6836 69C57.1438 69 57.5169 68.6269 57.5169 68.1667L56.6836 69ZM57.5169 61.9867C57.5165 61.7095 57.6539 61.4502 57.8836 61.295L57.5169 61.9867ZM64.1836 48.2717L57.8836 61.295C62.0652 58.4783 64.1836 54.105 64.1836 48.2717ZM53.6419 32.63L64.1836 48.2717C64.2711 41.3709 60.071 35.1389 53.6419 32.63ZM47.7219 57.3117C47.3794 57.3398 47.054 57.4731 46.7903 57.6933C44.9444 59.2861 42.7877 60.478 40.4569 61.1933C40.2806 61.2426 40.1253 61.3486 40.0153 61.495C39.622 62.0198 39.0044 62.3286 38.3486 62.3283H37.5153C36.3647 62.3283 35.4319 61.3956 35.4319 60.245C35.4319 59.0944 36.3647 58.1617 37.5153 58.1617H38.3486C38.769 58.1609 39.1796 58.2889 39.5253 58.5283C39.7403 58.6766 40.0123 58.7154 40.2603 58.6333C41.4363 58.2319 42.5543 57.6771 43.5853 56.9833C43.7781 56.8578 43.8326 56.5996 43.7071 56.4068C43.6754 56.3582 43.6339 56.3167 43.5853 56.285C40.5145 54.3555 39.5893 50.302 41.5188 47.2312C42.0894 46.3229 42.8739 45.5683 43.8036 45.0333C44.0585 44.8838 44.2151 44.6105 44.2153 44.315V33.805C44.218 32.9953 44.8722 32.3388 45.6819 32.3333H48.6453C49.4601 32.3306 50.1232 32.9884 50.1269 33.8033V44.32C50.1274 44.6158 50.2847 44.8892 50.5402 45.0383C53.6896 46.8589 54.7667 50.8879 52.9461 54.0372C51.8542 55.926 49.8979 57.1516 47.7219 57.31L47.7219 57.3117Z" fill="white"/>
</svg>
