<svg width="138" height="138" viewBox="0 0 138 138" fill="none" xmlns="http://www.w3.org/2000/svg">
<path opacity="0.2" fill-rule="evenodd" clip-rule="evenodd" d="M27.2466 41.4565C19.0283 49.6748 15.7623 59.9852 17.5509 72.0735C19.2319 83.5098 25.8118 94.029 34.4993 102.36C43.1868 110.691 53.9819 116.833 64.0971 119.515C75.5105 122.552 88.1296 119.166 94.6701 112.626C103.497 103.799 108.252 83.7543 109.606 69.0825C110.843 55.5402 109.977 32.0869 90.1815 27.1723C80.7332 24.8294 68.8883 24.5096 57.461 26.7226C46.0346 28.9346 35.0248 33.6783 27.2466 41.4565Z" fill="#FF8D85"/>
<path d="M66 111C88.0914 111 106 93.0914 106 71C106 48.9086 88.0914 31 66 31C43.9086 31 26 48.9086 26 71C26 93.0914 43.9086 111 66 111Z" fill="#FF8D85"/>
<path fill-rule="evenodd" clip-rule="evenodd" d="M80.9667 65.9241L84.03 68.3875L84.0267 68.3925C84.2238 68.5508 84.4032 68.7302 84.5615 68.9273C85.7674 70.4286 85.528 72.6232 84.0267 73.8291L80.9633 76.2925C80.4777 76.6815 80.2259 77.2926 80.2967 77.9108L80.7217 81.8208C80.7496 82.0746 80.7495 82.3306 80.7215 82.5844C80.5102 84.4975 78.7881 85.8771 76.875 85.6658L72.9667 85.2408C72.3488 85.1723 71.7387 85.4237 71.3483 85.9075L68.885 88.9708C68.7266 89.168 68.5473 89.3473 68.3501 89.5057C66.8488 90.7116 64.6542 90.4721 63.4483 88.9708L60.9817 85.9025C60.5915 85.4184 59.9812 85.167 59.3633 85.2358L55.4533 85.6608C55.1996 85.6887 54.9435 85.6887 54.6897 85.6606C52.7766 85.4493 51.397 83.7272 51.6083 81.8141L52.0333 77.9058C52.1034 77.2877 51.8517 76.6769 51.3667 76.2875L48.3033 73.8241C48.1062 73.6658 47.9268 73.4864 47.7685 73.2893C46.5626 71.788 46.802 69.5934 48.3033 68.3875L51.37 65.9225C51.8553 65.5333 52.107 64.9223 52.0367 64.3041L51.6117 60.3958C51.5837 60.142 51.5838 59.8859 51.6118 59.6322C51.8231 57.7191 53.5452 56.3395 55.4583 56.5508L59.3667 56.9708C59.9848 57.0415 60.596 56.7897 60.985 56.3041L63.4483 53.2425C63.5613 53.1119 63.6835 52.9897 63.8141 52.8767C65.3154 51.5774 67.5857 51.7412 68.885 53.2425L71.3483 56.3041C71.7387 56.7879 72.3488 57.0393 72.9667 56.9708L76.88 56.5508C77.1338 56.5229 77.3898 56.5229 77.6436 56.551C79.5567 56.7622 80.9363 58.4844 80.725 60.3975L80.3 64.3058C80.2312 64.9237 80.4826 65.534 80.9667 65.9241ZM62.6619 76.7655C63.9651 77.766 65.8328 77.5207 66.8333 76.2175L73.6117 67.1808C74.1639 66.4444 74.0147 65.3997 73.2783 64.8475C72.5419 64.2952 71.4973 64.4444 70.945 65.1808L64.43 73.8658L60.6783 70.1141C60.6649 70.1002 60.6513 70.0866 60.6374 70.0732C59.9753 69.4337 58.9202 69.452 58.2807 70.1141C57.6412 70.7762 57.6596 71.8313 58.3217 72.4708L62.395 76.5341C62.4793 76.6165 62.5684 76.6937 62.6619 76.7655Z" fill="white"/>
</svg>
