<svg width="22" height="19" viewBox="0 0 22 19" fill="none" xmlns="http://www.w3.org/2000/svg">
<path fill-rule="evenodd" clip-rule="evenodd" d="M22 2.14177C21.1786 2.51097 20.3059 2.75357 19.4118 2.8613C20.3571 2.28551 21.0619 1.38672 21.3956 0.331303C20.5115 0.863243 19.5422 1.23886 18.5305 1.44166C17.6802 0.520385 16.4828 -0.00249485 15.2292 8.95091e-06C14.0242 0.0075354 12.8717 0.493515 12.0251 1.351C11.1785 2.20848 10.7074 3.36719 10.7153 4.57213C10.7149 4.92308 10.754 5.27296 10.8318 5.61519C7.19064 5.42545 3.80484 3.68639 1.52965 0.837303C0.331493 2.9248 0.939466 5.58264 2.926 6.94166C2.20823 6.919 1.50664 6.72273 0.881294 6.36966V6.42789C0.871862 8.59314 2.38585 10.4667 4.50482 10.912C3.84054 11.0948 3.14302 11.1218 2.46659 10.991C3.04622 12.8437 4.74207 14.121 6.68282 14.1667C5.08971 15.4351 3.11311 16.125 1.07671 16.1234C0.723285 16.2436 0.336867 16.2209 0 16.06C2.05652 17.4029 4.4596 18.1179 6.91576 18.1177C10.3508 18.1172 13.6426 16.7411 16.0558 14.2965C18.469 11.8519 19.8025 8.54264 19.7586 5.10789C19.7586 4.9086 19.7586 4.71189 19.7456 4.51519C20.6326 3.86483 21.3961 3.06103 22 2.14177Z" fill="#9AA1B8"/>
</svg>
